<?xml version="1.0" standalone="no"?>
<!DOCTYPE svg PUBLIC "-//W3C//DTD SVG 20010904//EN"
 "http://www.w3.org/TR/2001/REC-SVG-20010904/DTD/svg10.dtd">
<svg version="1.0" xmlns="http://www.w3.org/2000/svg"
 width="700.000000pt" height="700.000000pt" viewBox="0 0 700.000000 700.000000"
 preserveAspectRatio="xMidYMid meet">
<metadata>
Created by potrace 1.11, written by Peter Selinger 2001-2013
</metadata>
<g transform="translate(0.000000,700.000000) scale(0.100000,-0.100000)"
fill="#000000" stroke="none">
<path d="M1035 6413 c-39 -7 -67 -28 -85 -63 -16 -33 -17 -107 -16 -1285 1
-942 4 -1255 13 -1270 6 -11 256 -264 555 -562 487 -486 547 -542 578 -545 19
-2 46 1 60 6 14 5 247 230 517 500 l493 491 323 -323 c255 -254 329 -322 350
-323 15 -1 33 -2 40 -2 31 -1 72 36 369 332 l318 316 497 -497 c520 -517 511
-510 583 -500 25 4 366 332 413 397 l22 30 2 890 c0 490 -3 906 -8 925 -7 28
-147 173 -727 753 -639 639 -723 719 -758 727 -37 7 -3496 10 -3539 3z m3396
-253 c0 -14 1 -304 1 -645 0 -602 1 -621 20 -663 12 -26 31 -48 47 -55 18 -8
216 -12 674 -12 356 -1 650 -5 654 -9 4 -3 7 -360 7 -792 l0 -785 -117 -117
-117 -117 -498 498 c-399 398 -503 497 -525 498 -15 1 -33 2 -39 2 -32 1 -73
-36 -370 -332 l-318 -316 -323 323 c-214 213 -331 322 -345 323 -12 1 -29 2
-37 2 -8 0 -23 -1 -32 -2 -9 0 -241 -225 -515 -498 l-498 -498 -467 467 -466
466 -1 1141 c-1 981 1 1141 13 1143 8 2 743 3 1633 3 l1618 0 1 -25z m1229
-1140 c0 -4 -941 -5 -985 -1 -7 1 -9 168 -8 483 1 266 2 490 2 498 1 13 991
-966 991 -980z"/>
<path d="M999 2901 c-70 -38 -66 39 -65 -1158 1 -1192 -4 -1107 66 -1142 33
-17 163 -18 2510 -17 2182 1 2478 3 2498 16 13 8 32 31 41 50 17 33 18 83 17
760 l-1 725 -23 30 c-23 29 -65 52 -89 49 -7 -1 -23 -2 -34 -3 -13 -1 -80 -59
-170 -148 l-149 -147 -498 496 c-444 444 -501 497 -532 500 -19 2 -48 -3 -65
-10 -16 -8 -171 -154 -342 -325 l-313 -312 -322 322 c-342 340 -342 341 -413
320 -20 -6 -191 -170 -522 -501 l-493 -491 -498 498 c-307 306 -505 497 -517
498 -11 0 -28 2 -37 4 -9 2 -31 -5 -49 -14z m2476 -590 c339 -338 339 -339
410 -318 20 6 139 118 348 326 l317 316 487 -487 c271 -271 500 -493 517 -500
64 -26 94 -13 194 85 45 45 82 77 83 72 0 -6 1 -229 2 -498 1 -319 -1 -487 -8
-488 -5 0 -1055 -1 -2332 -2 l-2323 -2 -1 25 c-3 100 -1 1661 2 1665 3 2 192
-182 420 -411 228 -228 426 -424 440 -434 31 -23 75 -30 109 -18 14 4 246 229
515 498 270 270 492 490 495 490 2 0 148 -144 325 -319z"/>
</g>
</svg>
